<svg width="105" height="24" viewBox="0 0 105 24" fill="none" xmlns="http://www.w3.org/2000/svg">
<path d="M12.0361 23.9987C5.39898 23.9987 0 18.6415 0 12.0559V0H10.8925V12.8235C10.8925 13.48 11.4314 14.0134 12.0931 14.0134C12.7547 14.0134 13.2937 13.4793 13.2937 12.8235V0H24.1862V11.9428C24.1862 18.5903 18.7356 23.9987 12.0361 23.9987Z" fill="url(#paint0_linear_4947_59720)"/>
<path d="M53.2285 23.9987V13.19H66.1522C66.8138 13.19 67.3527 12.6558 67.3527 12C67.3527 11.3435 66.8145 10.81 66.1522 10.81H53.2285V0H65.2646C71.9641 0 77.4147 5.40835 77.4147 12.0559C77.4147 18.6409 72.0157 23.9987 65.3786 23.9987H53.2285Z" fill="url(#paint1_linear_4947_59720)"/>
<path d="M50.4279 0H26.6138V10.8094H42.192L50.4279 0Z" fill="url(#paint2_linear_4947_59720)"/>
<path d="M35.2211 13.1899L26.9858 23.9987H50.8V13.1899H35.2211Z" fill="url(#paint3_linear_4947_59720)"/>
<path d="M86.0734 23.9987V17.8161H79.8418V6.18258H86.0734V0H97.7971V6.18258H104.028V17.8161H97.7971V23.9987H86.0734Z" fill="url(#paint4_linear_4947_59720)"/>
<path d="M12.0361 23.9987C5.39898 23.9987 0 18.6415 0 12.0559V0H10.8925V12.8235C10.8925 13.48 11.4314 14.0234 12.0931 14.0134C13.2139 13.9974 13.2937 12.8235 13.2937 12.8235C19.4515 12.7004 21.3063 22.7588 12.0361 23.9987Z" fill="url(#paint5_linear_4947_59720)"/>
<path d="M50.4279 0L26.6138 10.8094H42.192L50.4279 0Z" fill="url(#paint6_linear_4947_59720)"/>
<path d="M35.2211 13.1899L26.9858 23.9987L50.8 13.1899H35.2211Z" fill="url(#paint7_linear_4947_59720)"/>
<path d="M79.8413 17.8154L104.027 6.18325H97.7966V0H86.0722V6.18325H79.8413V17.8154Z" fill="url(#paint8_linear_4947_59720)"/>
<path d="M77.4142 12.0572C77.4142 18.6428 72.0152 24 65.3781 24H53.228V13.1919H66.1517C66.8133 13.1919 67.361 12.6571 67.3509 12.0006C67.3348 10.8885 66.1517 10.8093 66.1517 10.8093C66.0277 4.6986 76.1647 2.85812 77.4142 12.0572Z" fill="url(#paint9_linear_4947_59720)"/>
<defs>
<linearGradient id="paint0_linear_4947_59720" x1="0.39265" y1="6.64097" x2="93.3369" y2="36.8019" gradientUnits="userSpaceOnUse">
<stop stop-color="#4D84FF"/>
<stop offset="0.5" stop-color="#8733FF"/>
<stop offset="1" stop-color="#FF31FA"/>
</linearGradient>
<linearGradient id="paint1_linear_4947_59720" x1="4.4357" y1="-5.81756" x2="97.3799" y2="24.3433" gradientUnits="userSpaceOnUse">
<stop stop-color="#4D84FF"/>
<stop offset="0.5" stop-color="#8733FF"/>
<stop offset="1" stop-color="#FF31FA"/>
</linearGradient>
<linearGradient id="paint2_linear_4947_59720" x1="4.33746" y1="-5.51662" x2="97.2817" y2="24.6443" gradientUnits="userSpaceOnUse">
<stop stop-color="#4D84FF"/>
<stop offset="0.5" stop-color="#8733FF"/>
<stop offset="1" stop-color="#FF31FA"/>
</linearGradient>
<linearGradient id="paint3_linear_4947_59720" x1="0.494415" y1="6.3262" x2="93.4387" y2="36.4871" gradientUnits="userSpaceOnUse">
<stop stop-color="#4D84FF"/>
<stop offset="0.5" stop-color="#8733FF"/>
<stop offset="1" stop-color="#FF31FA"/>
</linearGradient>
<linearGradient id="paint4_linear_4947_59720" x1="7.41646" y1="-15.0037" x2="100.361" y2="15.1571" gradientUnits="userSpaceOnUse">
<stop stop-color="#4D84FF"/>
<stop offset="0.5" stop-color="#8733FF"/>
<stop offset="1" stop-color="#FF31FA"/>
</linearGradient>
<linearGradient id="paint5_linear_4947_59720" x1="16.3641" y1="21.5335" x2="1.5539" y2="3.07488" gradientUnits="userSpaceOnUse">
<stop stop-color="#1E1E64"/>
<stop offset="0.1289" stop-color="#261F70" stop-opacity="0.8711"/>
<stop offset="0.3596" stop-color="#3B238E" stop-opacity="0.6404"/>
<stop offset="0.6653" stop-color="#5D2AC1" stop-opacity="0.3347"/>
<stop offset="1" stop-color="#8732FF" stop-opacity="0"/>
</linearGradient>
<linearGradient id="paint6_linear_4947_59720" x1="51.7747" y1="2.9382" x2="28.257" y2="13.7193" gradientUnits="userSpaceOnUse">
<stop stop-color="#1E1E64"/>
<stop offset="0.1289" stop-color="#261F70" stop-opacity="0.8711"/>
<stop offset="0.3596" stop-color="#3B238E" stop-opacity="0.6404"/>
<stop offset="0.6653" stop-color="#5D2AC1" stop-opacity="0.3347"/>
<stop offset="1" stop-color="#8732FF" stop-opacity="0"/>
</linearGradient>
<linearGradient id="paint7_linear_4947_59720" x1="25.6399" y1="21.0444" x2="49.4979" y2="10.1773" gradientUnits="userSpaceOnUse">
<stop stop-color="#1E1E64"/>
<stop offset="0.1289" stop-color="#261F70" stop-opacity="0.8711"/>
<stop offset="0.3596" stop-color="#3B238E" stop-opacity="0.6404"/>
<stop offset="0.6653" stop-color="#5D2AC1" stop-opacity="0.3347"/>
<stop offset="1" stop-color="#8732FF" stop-opacity="0"/>
</linearGradient>
<linearGradient id="paint8_linear_4947_59720" x1="102.994" y1="-1.91053" x2="86.7786" y2="8.46029" gradientUnits="userSpaceOnUse">
<stop stop-color="#1E1E64"/>
<stop offset="0.1289" stop-color="#261F70" stop-opacity="0.8711"/>
<stop offset="0.3596" stop-color="#3B238E" stop-opacity="0.6404"/>
<stop offset="0.6653" stop-color="#5D2AC1" stop-opacity="0.3347"/>
<stop offset="1" stop-color="#8732FF" stop-opacity="0"/>
</linearGradient>
<linearGradient id="paint9_linear_4947_59720" x1="74.9299" y1="7.76253" x2="56.5545" y2="22.7371" gradientUnits="userSpaceOnUse">
<stop stop-color="#1E1E64"/>
<stop offset="0.1289" stop-color="#261F70" stop-opacity="0.8711"/>
<stop offset="0.3596" stop-color="#3B238E" stop-opacity="0.6404"/>
<stop offset="0.6653" stop-color="#5D2AC1" stop-opacity="0.3347"/>
<stop offset="1" stop-color="#8732FF" stop-opacity="0"/>
</linearGradient>
</defs>
</svg>
